<svg width="4092" height="1779" xmlns="http://www.w3.org/2000/svg" xmlns:xlink="http://www.w3.org/1999/xlink" xml:space="preserve" overflow="hidden"><g transform="translate(-15 -449)"><text fill="#C55A11" font-family="Poppins,Poppins_MSFontService,sans-serif" font-weight="400" font-size="550" transform="matrix(1 0 0 1 345.058 1120)">LeanMind</text><text fill="#008080" font-family="Calibri,Calibri_MSFontService,sans-serif" font-weight="400" font-size="138" transform="matrix(1 0 0 1 1242.65 1389)">Mere værdi </text><text fill="#009999" font-family="Calibri,Calibri_MSFontService,sans-serif" font-weight="400" font-size="128" transform="matrix(1 0 0 1 1921.01 1389)">●</text><text fill="#008080" font-family="Calibri,Calibri_MSFontService,sans-serif" font-weight="400" font-size="138" transform="matrix(1 0 0 1 2029.29 1389)">Mindre spild</text><path d="M2020.5 748C2020.5 711.273 2050.05 681.5 2086.5 681.5 2122.95 681.5 2152.5 711.273 2152.5 748 2152.5 784.727 2122.95 814.5 2086.5 814.5 2050.05 814.5 2020.5 784.727 2020.5 748Z" stroke="#008080" stroke-width="4.58333" stroke-miterlimit="8" fill="#008080" fill-rule="evenodd"/><path d="M2030.5 768C2030.5 750.603 2044.6 736.5 2062 736.5 2079.4 736.5 2093.5 750.603 2093.5 768 2093.5 785.397 2079.4 799.5 2062 799.5 2044.6 799.5 2030.5 785.397 2030.5 768Z" stroke="#009999" stroke-width="4.58333" stroke-miterlimit="8" fill="#009999" fill-rule="evenodd"/></g></svg>